<?xml version="1.0" encoding="UTF-8"?>
<!DOCTYPE svg PUBLIC "-//W3C//DTD SVG 1.1 Tiny//EN" "http://www.w3.org/Graphics/SVG/1.1/DTD/svg11-tiny.dtd">
<svg baseProfile="tiny" height="85px" version="1.1" viewBox="0 0 85 85" width="85px" x="0px" xmlns="http://www.w3.org/2000/svg" xmlns:xlink="http://www.w3.org/1999/xlink" y="0px">
<polygon fill="none" points="84.99,85 0,85 0.009,0 85,0 "/>
<path d="M78.841,21.851c0-1.063-0.864-1.934-1.931-1.93h-8.008l-0.004-8.978c0-1.064-0.864-1.927-1.93-1.927H8.07  c-1.073,0-1.93,0.86-1.93,1.933l0.017,50.2c0,1.043,0.849,1.932,1.934,1.932l8.004-0.005l0.004,8.977  c0,1.163,0.955,1.931,1.93,1.931h58.902c1.108,0,1.928-0.907,1.928-1.931L78.841,21.851z" fill-opacity="0.2" stroke-opacity="0.2"/>
<polygon fill-opacity="0.5" points="76.932,72.055 76.912,57.133 8.072,56.76 8.091,61.149 18.028,61.146 18.031,72.055 " stroke-opacity="0.5"/>
<linearGradient gradientTransform="matrix(1 0 0 1 -48.6074 0.2354)" gradientUnits="userSpaceOnUse" id="SVGID_1_" x1="86.1377" x2="86.1377" y1="9.5166" y2="118.8944">
<stop offset="0" style="stop-color:#FFFFFF"/>
<stop offset="1" style="stop-color:#B2B2B2"/>
</linearGradient>
<polygon fill="url(#SVGID_1_)" points="66.989,59.195 8.091,59.216 8.072,11.015 66.971,11.015 "/>
<linearGradient gradientTransform="matrix(1 0 0 1 -48.6074 0.2354)" gradientUnits="userSpaceOnUse" id="SVGID_2_" x1="86.1416" x2="86.1416" y1="35.375" y2="8.2513">
<stop offset="0" style="stop-color:#DEEEF9"/>
<stop offset="0.1953" style="stop-color:#C2E7F8"/>
<stop offset="0.6144" style="stop-color:#7AD6F5"/>
<stop offset="1" style="stop-color:#33C5F3"/>
</linearGradient>
<polygon fill="url(#SVGID_2_)" points="63.054,54.291 12.016,54.31 12.016,15.923 63.042,15.903 "/>
<linearGradient gradientTransform="matrix(1 0 0 1 -48.6074 0.2354)" gradientUnits="userSpaceOnUse" id="SVGID_3_" x1="80.2568" x2="80.2568" y1="31.0098" y2="70.6014">
<stop offset="0" style="stop-color:#79CD19"/>
<stop offset="1" style="stop-color:#1B6332"/>
</linearGradient>
<polygon fill="url(#SVGID_3_)" points="21.844,25.394 51.284,54.317 12.016,54.31 12.023,35.212 "/>
<rect fill-opacity="0.2" height="39.622" stroke-opacity="0.2" width="51.319" x="15.663" y="19.573"/>
<linearGradient gradientTransform="matrix(1 0 0 1 -48.6074 0.2354)" gradientUnits="userSpaceOnUse" id="SVGID_4_" x1="96.0811" x2="96.081" y1="20.4209" y2="129.8009">
<stop offset="0" style="stop-color:#FFFFFF"/>
<stop offset="1" style="stop-color:#B2B2B2"/>
</linearGradient>
<polygon fill="url(#SVGID_4_)" points="76.932,70.121 18.031,70.121 18.015,21.941 76.912,21.919 "/>
<linearGradient gradientTransform="matrix(1 0 0 1 -48.6074 0.2354)" gradientUnits="userSpaceOnUse" id="SVGID_5_" x1="96.0762" x2="96.0762" y1="46.3027" y2="19.1804">
<stop offset="0" style="stop-color:#DEEEF9"/>
<stop offset="0.1953" style="stop-color:#C2E7F8"/>
<stop offset="0.6144" style="stop-color:#7AD6F5"/>
<stop offset="1" style="stop-color:#33C5F3"/>
</linearGradient>
<polygon fill="url(#SVGID_5_)" points="72.998,65.22 21.959,65.235 21.94,26.847 72.988,26.831 "/>
<linearGradient gradientTransform="matrix(1 0 0 1 -48.6074 0.2354)" gradientUnits="userSpaceOnUse" id="SVGID_6_" x1="98.8701" x2="98.8701" y1="26.3516" y2="77.4821">
<stop offset="0" style="stop-color:#79CD19"/>
<stop offset="1" style="stop-color:#1B6332"/>
</linearGradient>
<polygon fill="url(#SVGID_6_)" points="61.533,31.853 27.526,65.231 72.998,65.22 72.992,43.307 "/>
<linearGradient gradientTransform="matrix(1 0 0 1 -48.6074 0.2354)" gradientUnits="userSpaceOnUse" id="SVGID_7_" x1="90.2021" x2="90.2021" y1="41.9375" y2="81.5304">
<stop offset="0" style="stop-color:#79CD19"/>
<stop offset="1" style="stop-color:#1B6332"/>
</linearGradient>
<polygon fill="url(#SVGID_7_)" points="31.784,36.321 61.229,65.246 21.959,65.235 21.965,46.143 "/>
</svg>
